<svg xmlns="http://www.w3.org/2000/svg" width="1049.669" height="287.139" viewBox="0 0 1049.669 287.139">
  <path d="M273.352,120.4l-5.081-21.881-13.435-3.384-.6-6.392-21.359-3.907-6.713-13.05H196.583l-6.713,13.05-21.359,3.907-.6,6.392L154.48,98.518,149.4,120.4H95.713a28.468,28.468,0,0,0,18.213,26.55,28.447,28.447,0,0,0,28.008,23.459h29.649l2.916,22.56,29.558,22.386V144.271h-3.668c-5.539,0-15.086-3.568-20.791-6l4.237-10.326c4.632,1.513,13.683,3.677,27.54,3.677s22.909-2.164,27.54-3.677l4.237,10.326c-5.7,2.43-15.251,6-20.79,6h-3.668v71.083l29.557-22.386,2.917-22.56h29.649a28.447,28.447,0,0,0,28.008-23.459,28.468,28.468,0,0,0,18.213-26.55Zm-11.207-15.865,3.889,16.764.77,3.338-6.025,5.117-3.183-4.768-2.045-22.111ZM156.717,121.3l3.889-16.764,6.593-1.66-2.045,22.111-3.182,4.768-6.025-5.117Zm-52.347,6.438h43.883l9.62,8.153-3.76,5.631H124.179A21.156,21.156,0,0,1,104.37,127.736Zm37.564,35.335a21.173,21.173,0,0,1-19.809-13.793h30.539l13.215,13.793Zm104.767,0-2.292,2.394-.642,4.943-2.394,18.571L226.03,200.6V151.314c8.337-1.21,19-5.823,22.377-7.346.6-.266.963-.44,1.055-.486L252.607,142l-9.766-23.817-2.733,1.375-.807.4c-.065.037-9.043,4.329-27.926,4.329S183.514,120,183.45,119.959l-.807-.4-2.733-1.375L170.143,142l3.146,1.485c.092.046.458.22,1.055.486,3.374,1.523,14.04,6.136,22.376,7.346V200.6l-15.342-11.619-2.394-18.571-.642-4.943-2.293-2.394-13.224-13.793-2.99-3.118,3.1-4.64.688-1.027,4.081-6.108,4.585-6.869,2.394-25.8.624-6.759,3.154-.577L194.749,91.4l6.309-12.28h20.635L228,91.4l16.287,2.981,3.155.577.624,6.759,2.393,25.8,4.586,6.869,4.081,6.108.688,1.027,3.1,4.64-2.989,3.118Zm34.116,0H256.872l13.215-13.793h30.539A21.173,21.173,0,0,1,280.817,163.071Zm17.755-21.551H268.638l-3.76-5.631,9.62-8.153h43.883A21.156,21.156,0,0,1,298.572,141.52Z" fill="#fff"/>
  <g>
    <path d="M364.913,167.5V127.845H350.966v-8.2h36.918v8.2H373.938V167.5Z" fill="#fff"/>
    <path d="M403.335,168.455a18.022,18.022,0,0,1-8.922-2.153,15.159,15.159,0,0,1-6.015-6.085,18.976,18.976,0,0,1-2.155-9.264v-.82a19.228,19.228,0,0,1,2.121-9.264,14.99,14.99,0,0,1,5.947-6.085,17.829,17.829,0,0,1,8.888-2.153,16.515,16.515,0,0,1,8.682,2.222,15.269,15.269,0,0,1,5.743,6.153,19.451,19.451,0,0,1,2.051,9.127v2.939H394.994a7.664,7.664,0,0,0,2.6,5.675,8.731,8.731,0,0,0,6.016,2.188q3.623,0,5.333-1.573a11.066,11.066,0,0,0,2.6-3.487l7.042,3.692a21.834,21.834,0,0,1-2.768,3.863,14.99,14.99,0,0,1-4.821,3.555A17.431,17.431,0,0,1,403.335,168.455Zm-8.272-21.809h15.861a6.767,6.767,0,0,0-2.358-4.717,9.353,9.353,0,0,0-10.973,0A7.634,7.634,0,0,0,395.063,146.646Z" fill="#fff"/>
    <path d="M443.261,168.455a19.272,19.272,0,0,1-8.922-2.051,15.432,15.432,0,0,1-6.323-5.948,18.088,18.088,0,0,1-2.325-9.435v-.957a18.084,18.084,0,0,1,2.325-9.434,15.426,15.426,0,0,1,6.323-5.948,19.259,19.259,0,0,1,8.922-2.051,18.785,18.785,0,0,1,8.341,1.709,14.941,14.941,0,0,1,5.64,4.683,16.3,16.3,0,0,1,2.837,6.734l-8.34,1.778a9.833,9.833,0,0,0-1.231-3.692,6.906,6.906,0,0,0-2.7-2.6,8.933,8.933,0,0,0-4.342-.957,9.675,9.675,0,0,0-4.682,1.128,8.021,8.021,0,0,0-3.283,3.35,11.335,11.335,0,0,0-1.2,5.435v.684a11.332,11.332,0,0,0,1.2,5.435,8.015,8.015,0,0,0,3.283,3.35,9.675,9.675,0,0,0,4.682,1.128,8.013,8.013,0,0,0,5.914-2.017,9.471,9.471,0,0,0,2.564-5.3l8.34,1.983a18.735,18.735,0,0,1-3.042,6.6,14.951,14.951,0,0,1-5.64,4.683A18.785,18.785,0,0,1,443.261,168.455Z" fill="#fff"/>
    <path d="M467.4,167.5V119.642h8.613v18.116h1.232a7.952,7.952,0,0,1,1.709-2.188,9.039,9.039,0,0,1,3.11-1.811,14.509,14.509,0,0,1,4.957-.718,13.075,13.075,0,0,1,6.938,1.812,12.344,12.344,0,0,1,4.616,4.991,15.969,15.969,0,0,1,1.64,7.418V167.5H491.6V147.945q0-3.828-1.88-5.743a7.19,7.19,0,0,0-5.367-1.914,7.555,7.555,0,0,0-6.152,2.632q-2.19,2.633-2.189,7.35V167.5Z" fill="#fff"/>
    <path d="M509.509,167.5v-33.91h8.477v3.691h1.231a7.791,7.791,0,0,1,2.94-2.973,10.186,10.186,0,0,1,5.4-1.265,10.658,10.658,0,0,1,5.81,1.4,9.408,9.408,0,0,1,3.351,3.659h1.231a9.978,9.978,0,0,1,3.281-3.624,10.669,10.669,0,0,1,6.016-1.436,12.182,12.182,0,0,1,5.708,1.333,9.976,9.976,0,0,1,4.1,4.034,13.6,13.6,0,0,1,1.538,6.8V167.5h-8.614V145.825a5.629,5.629,0,0,0-1.436-4.2,5.538,5.538,0,0,0-4.034-1.4,5.653,5.653,0,0,0-4.546,1.88,8.029,8.029,0,0,0-1.606,5.367V167.5h-8.615V145.825a5.628,5.628,0,0,0-1.435-4.2,5.541,5.541,0,0,0-4.034-1.4,5.653,5.653,0,0,0-4.546,1.88,8.024,8.024,0,0,0-1.608,5.367V167.5Z" fill="#fff"/>
    <path d="M583.343,168.455a18.019,18.019,0,0,1-8.922-2.153,15.159,15.159,0,0,1-6.015-6.085,18.976,18.976,0,0,1-2.155-9.264v-.82a19.228,19.228,0,0,1,2.12-9.264,15,15,0,0,1,5.948-6.085,17.823,17.823,0,0,1,8.887-2.153,16.516,16.516,0,0,1,8.683,2.222,15.269,15.269,0,0,1,5.743,6.153,19.463,19.463,0,0,1,2.051,9.127v2.939H575a7.664,7.664,0,0,0,2.6,5.675,8.729,8.729,0,0,0,6.016,2.188q3.623,0,5.333-1.573a11.081,11.081,0,0,0,2.6-3.487l7.042,3.692a21.834,21.834,0,0,1-2.768,3.863A14.99,14.99,0,0,1,591,166.985,17.434,17.434,0,0,1,583.343,168.455Zm-8.272-21.809h15.861a6.771,6.771,0,0,0-2.358-4.717,9.353,9.353,0,0,0-10.973,0A7.634,7.634,0,0,0,575.071,146.646Z" fill="#fff"/>
    <path d="M607.34,167.5v-33.91h8.477v4.444h1.231a8.966,8.966,0,0,1,3.076-3.385q2.256-1.6,6.837-1.606a13.081,13.081,0,0,1,6.939,1.812,12.348,12.348,0,0,1,4.615,4.991,15.957,15.957,0,0,1,1.641,7.418V167.5h-8.615V147.945q0-3.828-1.88-5.743a7.189,7.189,0,0,0-5.367-1.914,7.557,7.557,0,0,0-6.152,2.632q-2.19,2.633-2.189,7.35V167.5Z" fill="#fff"/>
    <path d="M666.544,167.5V119.642h20.784a18.349,18.349,0,0,1,7.863,1.572,11.775,11.775,0,0,1,7.041,11.212v.82a11.13,11.13,0,0,1-2.051,6.974,12.058,12.058,0,0,1-5.059,3.9v1.231a5.692,5.692,0,0,1,4.239,1.881,6.819,6.819,0,0,1,1.5,4.614V167.5H691.84V153.141a4.028,4.028,0,0,0-.854-2.666,3.5,3.5,0,0,0-2.837-1.026h-12.58V167.5Zm9.025-26.253h10.8A6.949,6.949,0,0,0,691.4,139.5a6.113,6.113,0,0,0,1.811-4.615V134.2a6.17,6.17,0,0,0-1.777-4.614,6.921,6.921,0,0,0-5.059-1.744h-10.8Z" fill="#fff"/>
    <path d="M726.159,168.455a19.774,19.774,0,0,1-9.092-2.051,15.375,15.375,0,0,1-6.358-5.948,17.956,17.956,0,0,1-2.325-9.366V150a17.956,17.956,0,0,1,2.325-9.366,15.369,15.369,0,0,1,6.358-5.948,21.18,21.18,0,0,1,18.185,0,15.377,15.377,0,0,1,6.359,5.948A17.975,17.975,0,0,1,743.935,150v1.094a17.975,17.975,0,0,1-2.324,9.366,15.384,15.384,0,0,1-6.359,5.948A19.776,19.776,0,0,1,726.159,168.455Zm0-7.657a8.961,8.961,0,0,0,6.564-2.564q2.6-2.564,2.6-7.349V150.2q0-4.783-2.564-7.349a9.725,9.725,0,0,0-13.16,0q-2.6,2.564-2.6,7.349v.684q0,4.785,2.6,7.349A8.956,8.956,0,0,0,726.159,160.8Z" fill="#fff"/>
    <path d="M772.24,168.455a13.107,13.107,0,0,1-7.042-1.572,11.1,11.1,0,0,1-3.623-3.487h-1.232v4.1h-8.476V119.642h8.613v17.842h1.231a9.97,9.97,0,0,1,2.017-2.324,10.1,10.1,0,0,1,3.349-1.811,16.01,16.01,0,0,1,5.163-.718,14.666,14.666,0,0,1,13.194,7.931A19.5,19.5,0,0,1,787.553,150v1.094a19.506,19.506,0,0,1-2.119,9.434,14.671,14.671,0,0,1-13.194,7.931Zm-2.6-7.52a9.2,9.2,0,0,0,6.632-2.564q2.665-2.564,2.666-7.486V150.2q0-4.923-2.632-7.486a9.9,9.9,0,0,0-13.3,0q-2.666,2.564-2.667,7.486v.684q0,4.922,2.667,7.486A9.191,9.191,0,0,0,769.641,160.935Z" fill="#fff"/>
    <path d="M811.617,168.455a19.774,19.774,0,0,1-9.092-2.051,15.375,15.375,0,0,1-6.358-5.948,17.956,17.956,0,0,1-2.325-9.366V150a17.956,17.956,0,0,1,2.325-9.366,15.369,15.369,0,0,1,6.358-5.948,21.18,21.18,0,0,1,18.185,0,15.377,15.377,0,0,1,6.359,5.948A17.975,17.975,0,0,1,829.393,150v1.094a17.975,17.975,0,0,1-2.324,9.366,15.384,15.384,0,0,1-6.359,5.948A19.776,19.776,0,0,1,811.617,168.455Zm0-7.657a8.961,8.961,0,0,0,6.564-2.564q2.6-2.564,2.6-7.349V150.2q0-4.783-2.564-7.349a9.725,9.725,0,0,0-13.16,0q-2.6,2.564-2.6,7.349v.684q0,4.785,2.6,7.349A8.956,8.956,0,0,0,811.617,160.8Z" fill="#fff"/>
    <path d="M849.22,167.5a7.35,7.35,0,0,1-5.436-2.085,7.532,7.532,0,0,1-2.084-5.572V140.7h-8.478v-7.11H841.7V123.06h8.614v10.528h9.3v7.11h-9.3v17.639q0,2.051,1.914,2.051h6.563v7.11Z" fill="#fff"/>
    <path d="M871.712,129.623a5.529,5.529,0,0,1-3.93-1.5,5.692,5.692,0,0,1,0-7.93,5.932,5.932,0,0,1,7.895,0,5.784,5.784,0,0,1,0,7.93A5.5,5.5,0,0,1,871.712,129.623ZM867.406,167.5v-33.91h8.613V167.5Z" fill="#fff"/>
    <path d="M901.519,168.455A19.272,19.272,0,0,1,892.6,166.4a15.432,15.432,0,0,1-6.323-5.948,18.088,18.088,0,0,1-2.325-9.435v-.957a18.084,18.084,0,0,1,2.325-9.434,15.426,15.426,0,0,1,6.323-5.948,19.259,19.259,0,0,1,8.922-2.051,18.788,18.788,0,0,1,8.341,1.709,14.941,14.941,0,0,1,5.64,4.683,16.3,16.3,0,0,1,2.837,6.734L910,147.535a9.815,9.815,0,0,0-1.23-3.692,6.906,6.906,0,0,0-2.7-2.6,8.936,8.936,0,0,0-4.342-.957,9.681,9.681,0,0,0-4.683,1.128,8.024,8.024,0,0,0-3.282,3.35,11.335,11.335,0,0,0-1.2,5.435v.684a11.332,11.332,0,0,0,1.2,5.435,8.019,8.019,0,0,0,3.282,3.35,9.681,9.681,0,0,0,4.683,1.128,8.013,8.013,0,0,0,5.914-2.017,9.463,9.463,0,0,0,2.563-5.3l8.341,1.983a18.735,18.735,0,0,1-3.042,6.6,14.951,14.951,0,0,1-5.64,4.683A18.788,18.788,0,0,1,901.519,168.455Z" fill="#fff"/>
    <path d="M939.736,168.455q-6.631,0-10.87-2.871a11.8,11.8,0,0,1-5.128-8.2l7.93-2.052a8.418,8.418,0,0,0,1.607,3.761,6.189,6.189,0,0,0,2.8,1.948,11.074,11.074,0,0,0,3.658.581,7.511,7.511,0,0,0,4.444-1.059,3.168,3.168,0,0,0,1.436-2.632,2.711,2.711,0,0,0-1.368-2.428,13.111,13.111,0,0,0-4.376-1.4l-1.914-.342a34.389,34.389,0,0,1-6.5-1.88,11.831,11.831,0,0,1-4.717-3.315,8.22,8.22,0,0,1-1.778-5.47,9.035,9.035,0,0,1,3.692-7.76q3.692-2.7,9.708-2.7a16.553,16.553,0,0,1,9.435,2.529,11.664,11.664,0,0,1,4.922,6.632l-8,2.461a5.516,5.516,0,0,0-2.223-3.691,7.409,7.409,0,0,0-4.136-1.094,6.855,6.855,0,0,0-3.759.854,2.681,2.681,0,0,0-1.3,2.359,2.606,2.606,0,0,0,1.368,2.426,11.485,11.485,0,0,0,3.691,1.2l1.915.342a42.24,42.24,0,0,1,6.939,1.812,11.6,11.6,0,0,1,4.922,3.213,8.309,8.309,0,0,1,1.812,5.641,9.706,9.706,0,0,1-3.863,8.238Q946.231,168.455,939.736,168.455Z" fill="#fff"/>
  </g>
</svg>
