<svg xmlns="http://www.w3.org/2000/svg" width="1145.382" height="382.852" viewBox="0 0 1145.382 382.852">
  <path d="M95.713,291.65H56.06V305.6h-8.2V268.68h8.2v13.946H95.713Z" fill="#9c9c9c"/>
  <rect x="47.856" y="263.21" width="1049.669" height="47.856" fill="none" stroke="#ffe629" stroke-miterlimit="10"/>
  <rect x="374.894" y="47.856" width="23.928" height="287.139" fill="none" stroke="#ffe629" stroke-miterlimit="10"/>
  <rect x="47.856" y="47.856" width="47.856" height="287.139" fill="none" stroke="#ffe629" stroke-miterlimit="10"/>
  <rect x="95.713" y="47.856" width="47.856" height="287.139" fill="none" stroke="#ffe629" stroke-miterlimit="10"/>
  <rect x="1049.669" y="47.856" width="47.856" height="287.139" fill="none" stroke="#ffe629" stroke-miterlimit="10"/>
  <rect x="1001.813" y="47.856" width="47.856" height="287.139" fill="none" stroke="#ffe629" stroke-miterlimit="10"/>
  <rect x="47.856" y="71.785" width="1049.669" height="47.856" fill="none" stroke="#ffe629" stroke-miterlimit="10"/>
  <rect x="47.856" y="311.067" width="1049.669" height="23.928" fill="none" stroke="#ffe629" stroke-miterlimit="10"/>
  <rect x="47.856" y="47.856" width="1049.669" height="23.928" fill="none" stroke="#ffe629" stroke-miterlimit="10"/>
  <rect x="47.856" y="334.995" width="47.856" height="4.841" fill="#ffe629" stroke="#ffe629" stroke-miterlimit="10"/>
  <rect x="33.472" y="320.611" width="23.928" height="4.841" transform="translate(368.467 277.595) rotate(90)" fill="#ffe629" stroke="#ffe629" stroke-miterlimit="10"/>
  <rect x="374.894" y="334.995" width="23.928" height="4.841" transform="translate(773.717 674.831) rotate(180)" fill="#ffe629" stroke="#ffe629" stroke-miterlimit="10"/>
  <path d="M67.964,358.059l2.611-4.5-2.585-4.42H69.9l1.77,3.222H71.9l1.771-3.222h1.91L73,353.564l2.611,4.5H73.695l-1.8-3.3H71.67l-1.8,3.3Z" fill="#ffe629"/>
  <rect x="1076.018" y="284.718" width="47.856" height="4.841" transform="translate(1387.085 -812.807) rotate(90)" fill="#ffe629" stroke="#ffe629" stroke-miterlimit="10"/>
  <rect x="-26.349" y="189.005" width="143.569" height="4.841" transform="translate(236.862 145.99) rotate(90)" fill="#ffe629" stroke="#ffe629" stroke-miterlimit="10"/>
  <path d="M1111.675,291.6l2.611-4.5-2.586-4.42h1.91l1.771,3.222h.229l1.771-3.222h1.91l-2.585,4.42,2.61,4.5h-1.91l-1.8-3.3h-.229l-1.8,3.3Z" fill="#ffe629"/>
  <g>
    <path d="M21.99,195.972a4.242,4.242,0,0,1-1.783-.356,2.736,2.736,0,0,1-1.655-2.611v-.229h1.629v.178a1.424,1.424,0,0,0,.5,1.14,1.939,1.939,0,0,0,1.311.427,1.885,1.885,0,0,0,1.28-.395,1.262,1.262,0,0,0,.452-.993v-.128a1.028,1.028,0,0,0-.2-.662,1.183,1.183,0,0,0-.547-.376,2.325,2.325,0,0,0-.777-.121H20.411v-1.783l2.878-1.528v-.2H18.781v-1.452H25.1v2.165L22.41,190.47v.205h.472a2.944,2.944,0,0,1,1.165.241,2.233,2.233,0,0,1,.936.745,2.156,2.156,0,0,1,.369,1.306v.153a2.7,2.7,0,0,1-.42,1.509,2.737,2.737,0,0,1-1.178.993A4.157,4.157,0,0,1,21.99,195.972Z" fill="#ffe629"/>
    <path d="M26.142,195.794l2.611-4.5-2.586-4.42h1.91l1.771,3.222h.229l1.77-3.222h1.911l-2.585,4.42,2.61,4.5h-1.91l-1.8-3.3h-.229l-1.8,3.3Z" fill="#ffe629"/>
  </g>
  <g>
    <path d="M13.84,326.3l2.61-4.495-2.585-4.42h1.91l1.771,3.223h.229l1.77-3.223h1.91l-2.585,4.42,2.611,4.495h-1.91l-1.8-3.3h-.229l-1.8,3.3Z" fill="#ffe629"/>
    <path d="M21.557,328.852,25.3,317.389h1.6l-3.744,11.463Z" fill="#ffe629"/>
    <path d="M27.237,326.3v-1.069a3.476,3.476,0,0,1,.306-1.548,2.67,2.67,0,0,1,.885-1.019,5.079,5.079,0,0,1,1.42-.656l.853-.267a2.963,2.963,0,0,0,.79-.376,1.557,1.557,0,0,0,.49-.541,1.5,1.5,0,0,0,.172-.726v-.051a1.273,1.273,0,0,0-.432-1.012,1.748,1.748,0,0,0-1.185-.376,1.729,1.729,0,0,0-1.191.4,1.463,1.463,0,0,0-.452,1.153v.229h-1.63v-.2A2.98,2.98,0,0,1,27.7,318.6a2.8,2.8,0,0,1,1.178-1.031,4.07,4.07,0,0,1,3.318-.007,2.856,2.856,0,0,1,1.165.981,2.586,2.586,0,0,1,.426,1.484v.127a2.785,2.785,0,0,1-.35,1.445,2.833,2.833,0,0,1-.948.969,5.938,5.938,0,0,1-1.363.617l-.816.255a3.466,3.466,0,0,0-.853.363,1.181,1.181,0,0,0-.426.433,1.224,1.224,0,0,0-.121.567v.051h4.8V326.3Z" fill="#ffe629"/>
  </g>
  <g>
    <path d="M376.785,358.238l2.61-4.5-2.585-4.42h1.91l1.771,3.223h.229l1.77-3.223h1.91l-2.585,4.42,2.611,4.5h-1.911l-1.795-3.3h-.229l-1.8,3.3Z" fill="#ffe629"/>
    <path d="M384.5,360.785l3.744-11.463h1.605l-3.744,11.463Z" fill="#ffe629"/>
    <path d="M390.182,358.238v-1.07a3.476,3.476,0,0,1,.306-1.548,2.67,2.67,0,0,1,.885-1.019,5.05,5.05,0,0,1,1.42-.655l.853-.268a2.978,2.978,0,0,0,.79-.376,1.557,1.557,0,0,0,.49-.541,1.5,1.5,0,0,0,.172-.726v-.051a1.27,1.27,0,0,0-.433-1.012,2.01,2.01,0,0,0-2.375.025,1.463,1.463,0,0,0-.452,1.153v.229h-1.63v-.2a2.989,2.989,0,0,1,.432-1.643,2.806,2.806,0,0,1,1.179-1.031,4.07,4.07,0,0,1,3.318-.007,2.856,2.856,0,0,1,1.165.981,2.586,2.586,0,0,1,.426,1.484v.127a2.785,2.785,0,0,1-.35,1.445,2.852,2.852,0,0,1-.948.969,5.938,5.938,0,0,1-1.363.617l-.816.255a3.466,3.466,0,0,0-.853.363,1.181,1.181,0,0,0-.426.433,1.223,1.223,0,0,0-.122.567v.051h4.8v1.452Z" fill="#ffe629"/>
  </g>
  <path d="M321.208,168.256l-5.08-21.882-13.436-3.384-.6-6.392-21.359-3.907-6.713-13.05H244.439l-6.713,13.05L216.367,136.6l-.6,6.392-13.435,3.384-5.081,21.882H143.569a28.47,28.47,0,0,0,18.214,26.549,28.444,28.444,0,0,0,28.007,23.459h29.65l2.916,22.56,29.557,22.386V192.127h-3.668c-5.539,0-15.086-3.567-20.79-6l4.237-10.327c4.631,1.513,13.683,3.678,27.54,3.678s22.909-2.165,27.54-3.678l4.237,10.327c-5.7,2.43-15.251,6-20.791,6H266.55V263.21l29.558-22.386,2.916-22.56h29.649a28.447,28.447,0,0,0,28.008-23.459,28.468,28.468,0,0,0,18.213-26.549ZM310,152.39l3.888,16.764.77,3.339-6.025,5.117-3.182-4.769-2.045-22.111ZM204.574,169.154l3.888-16.764,6.594-1.66-2.045,22.111-3.182,4.769-6.026-5.117Zm-52.347,6.438h43.882l9.62,8.153-3.76,5.631H172.036A21.155,21.155,0,0,1,152.227,175.592Zm37.563,35.336a21.175,21.175,0,0,1-19.809-13.793H200.52l13.215,13.793Zm104.768,0-2.293,2.393-.642,4.943-2.393,18.571-15.343,11.62V199.171c8.336-1.211,19-5.824,22.377-7.346.6-.266.963-.44,1.054-.486l3.146-1.486L290.7,166.036l-2.733,1.376-.807.4c-.064.037-9.042,4.329-27.925,4.329s-27.861-4.292-27.925-4.329l-.807-.4-2.733-1.376L218,189.853l3.145,1.486c.092.046.459.22,1.055.486,3.375,1.522,14.041,6.135,22.377,7.346v49.284l-15.343-11.62-2.394-18.571-.642-4.943-2.292-2.393-13.225-13.793-2.989-3.118,3.1-4.641.687-1.027,4.081-6.108,4.586-6.869,2.393-25.8.624-6.759,3.155-.578,16.287-2.981,6.31-12.279h20.634l6.31,12.279,16.287,2.981,3.155.578.623,6.759,2.394,25.8,4.585,6.869,4.081,6.108.688,1.027,3.1,4.641-2.99,3.118Zm34.115,0H304.728l13.215-13.793h30.539A21.173,21.173,0,0,1,328.673,210.928Zm17.755-21.552H316.5l-3.761-5.631,9.621-8.153h43.882A21.156,21.156,0,0,1,346.428,189.376Z" fill="#fff"/>
  <g>
    <path d="M412.77,215.354V175.7H398.823v-8.2h36.918v8.2H421.794v39.653Z" fill="#fff"/>
    <path d="M451.192,216.312a18.009,18.009,0,0,1-8.922-2.154,15.162,15.162,0,0,1-6.016-6.085,18.986,18.986,0,0,1-2.154-9.263v-.821a19.226,19.226,0,0,1,2.12-9.263,14.984,14.984,0,0,1,5.947-6.085,17.819,17.819,0,0,1,8.888-2.154,16.528,16.528,0,0,1,8.683,2.222,15.269,15.269,0,0,1,5.743,6.153,19.463,19.463,0,0,1,2.051,9.127v2.94H442.851a7.664,7.664,0,0,0,2.6,5.675,8.725,8.725,0,0,0,6.015,2.187q3.623,0,5.333-1.572a11.062,11.062,0,0,0,2.6-3.488l7.042,3.693a21.929,21.929,0,0,1-2.769,3.862,14.988,14.988,0,0,1-4.82,3.556A17.451,17.451,0,0,1,451.192,216.312Zm-8.273-21.81h15.862a6.77,6.77,0,0,0-2.359-4.717,9.356,9.356,0,0,0-10.972,0A7.638,7.638,0,0,0,442.919,194.5Z" fill="#fff"/>
    <path d="M491.117,216.312a19.268,19.268,0,0,1-8.921-2.051,15.441,15.441,0,0,1-6.324-5.948,18.1,18.1,0,0,1-2.325-9.435v-.957a18.1,18.1,0,0,1,2.325-9.435,15.435,15.435,0,0,1,6.324-5.948,19.268,19.268,0,0,1,8.921-2.051,18.8,18.8,0,0,1,8.341,1.709,14.947,14.947,0,0,1,5.641,4.684,16.3,16.3,0,0,1,2.837,6.733l-8.341,1.779a9.849,9.849,0,0,0-1.23-3.693,6.9,6.9,0,0,0-2.7-2.6,8.932,8.932,0,0,0-4.341-.957,9.689,9.689,0,0,0-4.683,1.127,8.024,8.024,0,0,0-3.282,3.35,11.339,11.339,0,0,0-1.2,5.436v.683a11.336,11.336,0,0,0,1.2,5.436,8.016,8.016,0,0,0,3.282,3.349,9.678,9.678,0,0,0,4.683,1.128,8.019,8.019,0,0,0,5.914-2.016,9.476,9.476,0,0,0,2.563-5.3l8.341,1.982a18.762,18.762,0,0,1-3.042,6.6,14.956,14.956,0,0,1-5.641,4.684A18.8,18.8,0,0,1,491.117,216.312Z" fill="#fff"/>
    <path d="M515.251,215.354V167.5h8.614v18.116H525.1a7.968,7.968,0,0,1,1.709-2.187,9.05,9.05,0,0,1,3.11-1.812,14.538,14.538,0,0,1,4.957-.718,13.081,13.081,0,0,1,6.939,1.812,12.348,12.348,0,0,1,4.615,4.991,15.957,15.957,0,0,1,1.641,7.418v20.236h-8.615V195.8q0-3.829-1.879-5.743a7.187,7.187,0,0,0-5.368-1.914,7.556,7.556,0,0,0-6.152,2.631q-2.19,2.632-2.188,7.35v17.228Z" fill="#fff"/>
    <path d="M557.366,215.354v-33.91h8.476v3.692h1.232a7.79,7.79,0,0,1,2.939-2.974,10.186,10.186,0,0,1,5.4-1.265,10.653,10.653,0,0,1,5.811,1.4,9.406,9.406,0,0,1,3.351,3.658h1.23a9.978,9.978,0,0,1,3.281-3.624A10.67,10.67,0,0,1,595.1,180.9a12.194,12.194,0,0,1,5.708,1.333,9.976,9.976,0,0,1,4.1,4.035,13.586,13.586,0,0,1,1.538,6.8v22.288h-8.614V193.682a5.625,5.625,0,0,0-1.435-4.2,5.535,5.535,0,0,0-4.035-1.4,5.652,5.652,0,0,0-4.545,1.88,8.024,8.024,0,0,0-1.607,5.367v20.031H577.6V193.682a5.626,5.626,0,0,0-1.436-4.2,5.536,5.536,0,0,0-4.034-1.4,5.654,5.654,0,0,0-4.546,1.88,8.024,8.024,0,0,0-1.607,5.367v20.031Z" fill="#fff"/>
    <path d="M631.2,216.312a18.006,18.006,0,0,1-8.922-2.154,15.155,15.155,0,0,1-6.016-6.085,18.986,18.986,0,0,1-2.154-9.263v-.821a19.226,19.226,0,0,1,2.12-9.263,14.978,14.978,0,0,1,5.947-6.085,17.819,17.819,0,0,1,8.888-2.154,16.525,16.525,0,0,1,8.682,2.222,15.278,15.278,0,0,1,5.744,6.153,19.463,19.463,0,0,1,2.05,9.127v2.94h-24.68a7.667,7.667,0,0,0,2.6,5.675,8.73,8.73,0,0,0,6.016,2.187q3.623,0,5.333-1.572a11.062,11.062,0,0,0,2.6-3.488l7.042,3.693a21.929,21.929,0,0,1-2.769,3.862,14.988,14.988,0,0,1-4.82,3.556A17.451,17.451,0,0,1,631.2,216.312Zm-8.273-21.81h15.861a6.765,6.765,0,0,0-2.358-4.717,9.358,9.358,0,0,0-10.973,0A7.637,7.637,0,0,0,622.927,194.5Z" fill="#fff"/>
    <path d="M655.2,215.354v-33.91h8.476v4.445h1.232a8.943,8.943,0,0,1,3.076-3.385q2.256-1.6,6.837-1.607a13.078,13.078,0,0,1,6.938,1.812,12.334,12.334,0,0,1,4.615,4.991,15.957,15.957,0,0,1,1.641,7.418v20.236H679.4V195.8q0-3.829-1.88-5.743a7.186,7.186,0,0,0-5.367-1.914A7.557,7.557,0,0,0,666,190.776q-2.19,2.632-2.188,7.35v17.228Z" fill="#fff"/>
    <path d="M714.4,215.354V167.5h20.784a18.341,18.341,0,0,1,7.862,1.572,11.778,11.778,0,0,1,7.041,11.212v.821a11.119,11.119,0,0,1-2.051,6.973,12.058,12.058,0,0,1-5.058,3.9v1.23a5.7,5.7,0,0,1,4.238,1.881,6.819,6.819,0,0,1,1.5,4.614v15.656H739.7V201a4.03,4.03,0,0,0-.855-2.666,3.5,3.5,0,0,0-2.837-1.025h-12.58v18.048Zm9.024-26.252h10.8a6.944,6.944,0,0,0,5.024-1.744,6.114,6.114,0,0,0,1.812-4.615v-.683a6.173,6.173,0,0,0-1.778-4.615,6.919,6.919,0,0,0-5.058-1.744h-10.8Z" fill="#fff"/>
    <path d="M774.016,216.312a19.782,19.782,0,0,1-9.093-2.051,15.385,15.385,0,0,1-6.357-5.948,17.948,17.948,0,0,1-2.325-9.367v-1.093a17.948,17.948,0,0,1,2.325-9.367,15.379,15.379,0,0,1,6.357-5.948,21.182,21.182,0,0,1,18.186,0,15.387,15.387,0,0,1,6.358,5.948,17.967,17.967,0,0,1,2.324,9.367v1.093a17.967,17.967,0,0,1-2.324,9.367,15.394,15.394,0,0,1-6.358,5.948A19.782,19.782,0,0,1,774.016,216.312Zm0-7.658a8.96,8.96,0,0,0,6.563-2.563q2.6-2.564,2.6-7.35v-.683q0-4.785-2.563-7.35a9.729,9.729,0,0,0-13.161,0q-2.6,2.564-2.6,7.35v.683q0,4.786,2.6,7.35A8.958,8.958,0,0,0,774.016,208.654Z" fill="#fff"/>
    <path d="M820.1,216.312a13.108,13.108,0,0,1-7.042-1.573,11.1,11.1,0,0,1-3.623-3.487H808.2v4.1h-8.477V167.5h8.613v17.843h1.232a9.968,9.968,0,0,1,2.016-2.324,10.1,10.1,0,0,1,3.35-1.812,16.031,16.031,0,0,1,5.162-.718,14.668,14.668,0,0,1,13.194,7.931,19.507,19.507,0,0,1,2.119,9.435v1.093a19.51,19.51,0,0,1-2.119,9.435,14.668,14.668,0,0,1-13.194,7.931Zm-2.6-7.521a9.192,9.192,0,0,0,6.632-2.563q2.667-2.564,2.666-7.487v-.683q0-4.924-2.632-7.487a9.9,9.9,0,0,0-13.3,0q-2.667,2.564-2.667,7.487v.683q0,4.921,2.667,7.487A9.189,9.189,0,0,0,817.5,208.791Z" fill="#fff"/>
    <path d="M859.474,216.312a19.782,19.782,0,0,1-9.093-2.051,15.385,15.385,0,0,1-6.357-5.948,17.948,17.948,0,0,1-2.325-9.367v-1.093a17.948,17.948,0,0,1,2.325-9.367,15.379,15.379,0,0,1,6.357-5.948,21.182,21.182,0,0,1,18.186,0,15.387,15.387,0,0,1,6.358,5.948,17.967,17.967,0,0,1,2.324,9.367v1.093a17.967,17.967,0,0,1-2.324,9.367,15.394,15.394,0,0,1-6.358,5.948A19.782,19.782,0,0,1,859.474,216.312Zm0-7.658a8.96,8.96,0,0,0,6.563-2.563q2.6-2.564,2.6-7.35v-.683q0-4.785-2.563-7.35a9.729,9.729,0,0,0-13.161,0q-2.6,2.564-2.6,7.35v.683q0,4.786,2.6,7.35A8.958,8.958,0,0,0,859.474,208.654Z" fill="#fff"/>
    <path d="M897.076,215.354a7.351,7.351,0,0,1-5.435-2.084,7.531,7.531,0,0,1-2.085-5.573V188.555h-8.478v-7.111h8.478V170.916h8.614v10.528h9.3v7.111h-9.3v17.638q0,2.052,1.914,2.051h6.564v7.11Z" fill="#fff"/>
    <path d="M919.569,177.479a5.53,5.53,0,0,1-3.931-1.5,5.695,5.695,0,0,1,0-7.93,5.931,5.931,0,0,1,7.9,0,5.784,5.784,0,0,1,0,7.93A5.5,5.5,0,0,1,919.569,177.479Zm-4.307,37.875v-33.91h8.613v33.91Z" fill="#fff"/>
    <path d="M949.375,216.312a19.272,19.272,0,0,1-8.922-2.051,15.439,15.439,0,0,1-6.323-5.948,18.091,18.091,0,0,1-2.325-9.435v-.957a18.088,18.088,0,0,1,2.325-9.435,15.432,15.432,0,0,1,6.323-5.948,19.272,19.272,0,0,1,8.922-2.051,18.8,18.8,0,0,1,8.341,1.709,14.955,14.955,0,0,1,5.641,4.684,16.3,16.3,0,0,1,2.837,6.733l-8.341,1.779a9.832,9.832,0,0,0-1.231-3.693,6.89,6.89,0,0,0-2.7-2.6,8.933,8.933,0,0,0-4.342-.957,9.685,9.685,0,0,0-4.682,1.127,8.018,8.018,0,0,0-3.282,3.35,11.339,11.339,0,0,0-1.2,5.436v.683a11.336,11.336,0,0,0,1.2,5.436,8.01,8.01,0,0,0,3.282,3.349,9.675,9.675,0,0,0,4.682,1.128,8.015,8.015,0,0,0,5.914-2.016,9.471,9.471,0,0,0,2.564-5.3l8.341,1.982a18.762,18.762,0,0,1-3.042,6.6,14.964,14.964,0,0,1-5.641,4.684A18.8,18.8,0,0,1,949.375,216.312Z" fill="#fff"/>
    <path d="M987.592,216.312q-6.631,0-10.87-2.872a11.805,11.805,0,0,1-5.128-8.2l7.931-2.051a8.407,8.407,0,0,0,1.606,3.76,6.194,6.194,0,0,0,2.8,1.949,11.094,11.094,0,0,0,3.657.581,7.51,7.51,0,0,0,4.444-1.06,3.168,3.168,0,0,0,1.436-2.632,2.712,2.712,0,0,0-1.367-2.428,13.111,13.111,0,0,0-4.376-1.4l-1.914-.342a34.389,34.389,0,0,1-6.5-1.88,11.814,11.814,0,0,1-4.717-3.315,8.211,8.211,0,0,1-1.778-5.47,9.029,9.029,0,0,1,3.692-7.759q3.691-2.7,9.708-2.7a16.543,16.543,0,0,1,9.434,2.53,11.658,11.658,0,0,1,4.922,6.631l-8,2.461a5.517,5.517,0,0,0-2.222-3.691,7.412,7.412,0,0,0-4.136-1.094,6.847,6.847,0,0,0-3.76.855,2.678,2.678,0,0,0-1.3,2.358,2.607,2.607,0,0,0,1.369,2.427,11.478,11.478,0,0,0,3.691,1.2l1.914.342a42.314,42.314,0,0,1,6.939,1.812,11.6,11.6,0,0,1,4.922,3.213,8.312,8.312,0,0,1,1.813,5.641,9.7,9.7,0,0,1-3.863,8.238Q994.086,216.313,987.592,216.312Z" fill="#fff"/>
  </g>
</svg>