<svg xmlns="http://www.w3.org/2000/svg" width="287.139" height="287.139" viewBox="0 0 287.139 287.139">
  <path d="M194.856,124.4l-4.2-18.108-11.118-2.8-.494-5.29-17.674-3.233-5.556-10.8H131.328l-5.555,10.8L108.1,98.2l-.493,5.29-11.118,2.8-4.2,18.108H47.856a23.56,23.56,0,0,0,15.072,21.97,23.543,23.543,0,0,0,23.177,19.413h24.536l2.413,18.669,24.459,18.524V144.15h-3.035c-4.584,0-12.484-2.952-17.205-4.963l3.506-8.546c3.833,1.253,11.323,3.044,22.79,3.044s18.958-1.791,22.79-3.044l3.506,8.546c-4.72,2.011-12.62,4.963-17.2,4.963h-3.036v58.822l24.46-18.524,2.413-18.669h24.535a23.54,23.54,0,0,0,23.177-19.413,23.556,23.556,0,0,0,15.072-21.97Zm-9.274-13.129,3.218,13.872.637,2.763-4.986,4.234-2.633-3.946-1.692-18.3ZM98.339,125.139l3.217-13.872,5.457-1.374-1.692,18.3-2.634,3.946L97.7,127.9ZM55.02,130.467H91.334l7.961,6.746-3.112,4.66H71.413A17.508,17.508,0,0,1,55.02,130.467Zm31.085,29.24a17.521,17.521,0,0,1-16.392-11.413H94.984l10.936,11.413Zm86.7,0-1.9,1.981-.531,4.091-1.981,15.367-12.7,9.616V149.978c6.9-1,15.724-4.819,18.517-6.079.493-.22.8-.364.873-.4l2.6-1.229-8.083-19.709-2.261,1.138-.668.334c-.053.031-7.483,3.582-23.109,3.582s-23.055-3.551-23.108-3.582l-.668-.334-2.262-1.138-8.082,19.709,2.6,1.229c.076.038.38.182.873.4,2.793,1.26,11.619,5.077,18.517,6.079v40.784l-12.7-9.616-1.981-15.367-.531-4.091-1.9-1.981-10.943-11.413-2.474-2.581,2.565-3.84.569-.85,3.377-5.054,3.795-5.684,1.981-21.348.516-5.593,2.61-.478L129.81,100.4l5.222-10.162h17.075l5.221,10.162,13.478,2.467,2.611.478.516,5.593,1.981,21.348,3.794,5.684,3.377,5.054.57.85,2.565,3.84-2.474,2.581Zm28.231,0H181.219l10.935-11.413h25.272A17.522,17.522,0,0,1,201.033,159.707Zm14.693-17.834H190.955l-3.111-4.66,7.961-6.746h36.313A17.507,17.507,0,0,1,215.726,141.873Z" fill="#000000"/>
</svg>
