<svg xmlns="http://www.w3.org/2000/svg" width="382.852" height="382.852" viewBox="0 0 382.852 382.852">
  <path d="M242.712,172.252l-4.2-18.107-11.118-2.8-.493-5.289-17.675-3.233-5.555-10.8H179.185l-5.556,10.8-17.674,3.233-.494,5.289-11.118,2.8-4.2,18.107H95.713a23.556,23.556,0,0,0,15.072,21.97,23.538,23.538,0,0,0,23.177,19.413H158.5L160.91,232.3l24.46,18.525V192.006h-3.036c-4.584,0-12.484-2.952-17.2-4.963l3.506-8.545c3.832,1.252,11.323,3.043,22.79,3.043s18.957-1.791,22.79-3.043l3.506,8.545c-4.721,2.011-12.621,4.963-17.205,4.963h-3.035v58.823L221.941,232.3l2.414-18.669H248.89a23.54,23.54,0,0,0,23.177-19.413,23.56,23.56,0,0,0,15.072-21.97Zm-9.273-13.129L236.656,173l.638,2.762-4.986,4.235-2.634-3.946-1.692-18.3ZM146.2,173l3.218-13.873,5.456-1.374-1.692,18.3-2.633,3.946-4.986-4.235Zm-43.318,5.327H139.19l7.961,6.747-3.111,4.66H119.269A17.507,17.507,0,0,1,102.877,178.323Zm31.085,29.241a17.521,17.521,0,0,1-16.393-11.414h25.272l10.936,11.414Zm86.7,0-1.9,1.981-.531,4.09L216.249,229l-12.7,9.615V197.835c6.9-1,15.724-4.819,18.517-6.079.494-.22.8-.364.873-.4l2.6-1.23-8.082-19.708-2.262,1.138-.668.334c-.053.03-7.482,3.582-23.108,3.582s-23.056-3.552-23.109-3.582l-.668-.334-2.261-1.138-8.083,19.708,2.6,1.23c.075.038.379.182.872.4,2.793,1.26,11.619,5.077,18.517,6.079v40.783L166.6,229l-1.981-15.368-.531-4.09-1.9-1.981L151.249,196.15l-2.474-2.58,2.565-3.84.57-.85,3.377-5.055,3.794-5.684,1.981-21.348.516-5.593,2.611-.478,13.478-2.466,5.221-10.162h17.075l5.222,10.162,13.478,2.466,2.61.478.516,5.593,1.981,21.348,3.795,5.684,3.377,5.055.569.85,2.565,3.84-2.474,2.58Zm28.231,0H229.075l10.936-11.414h25.271A17.52,17.52,0,0,1,248.89,207.564Zm14.692-17.834h-24.77l-3.112-4.66,7.961-6.747h36.314A17.507,17.507,0,0,1,263.582,189.73Z" fill="#fff"/>
  <rect x="95.713" y="334.995" width="191.426" height="4.841" fill="#ffe629" stroke="#ffe629" stroke-miterlimit="10"/>
  <rect x="21.508" y="308.646" width="47.856" height="4.841" transform="translate(356.503 265.631) rotate(90)" fill="#ffe629" stroke="#ffe629" stroke-miterlimit="10"/>
  <rect x="47.856" y="43.016" width="47.856" height="4.841" transform="translate(143.569 90.872) rotate(180)" fill="#ffe629" stroke="#ffe629" stroke-miterlimit="10"/>
  <rect x="47.856" y="47.856" width="47.856" height="287.139" fill="none" stroke="#ffe629" stroke-miterlimit="10"/>
  <rect x="47.856" y="287.139" width="287.139" height="47.856" fill="none" stroke="#ffe629" stroke-miterlimit="10"/>
  <rect x="287.139" y="47.856" width="47.856" height="287.139" fill="none" stroke="#ffe629" stroke-miterlimit="10"/>
  <rect x="47.856" y="47.856" width="287.139" height="47.856" fill="none" stroke="#ffe629" stroke-miterlimit="10"/>
  <g>
    <path d="M187.962,358.059v-1.808h-4.381v-1.885l3.082-5.222h2.929V354.8h1.478v1.452h-1.478v1.808Zm-2.827-3.26h2.827v-4.61h-.229l-2.6,4.406Z" fill="#ffe629"/>
    <path d="M191.63,358.059l2.61-4.5-2.585-4.42h1.911l1.77,3.222h.229l1.77-3.222h1.91l-2.585,4.42,2.612,4.5h-1.911l-1.8-3.3h-.229l-1.8,3.3Z" fill="#ffe629"/>
  </g>
  <path d="M26.142,315.524l2.611-4.5-2.585-4.42h1.91l1.77,3.222h.229l1.771-3.222h1.91l-2.585,4.42,2.611,4.5H31.873l-1.8-3.3h-.229l-1.8,3.3Z" fill="#ffe629"/>
  <path d="M67.964,33.707l2.611-4.5-2.586-4.42H69.9l1.77,3.222H71.9l1.771-3.222h1.91L73,29.212l2.611,4.5H73.695l-1.8-3.3H71.67l-1.8,3.3Z" fill="#ffe629"/>
</svg>
