<svg xmlns="http://www.w3.org/2000/svg" width="760.618" height="451.957" viewBox="0 0 760.618 451.957">
  <g>
    <g>
      <g>
        <path d="M617.58,376.624a224.1,224.1,0,0,0,7.386-37.147L589.2,324.983a186.6,186.6,0,0,0-.028-21.879L624.9,288.61a230.559,230.559,0,0,0-7.4-37.174l-38.571.3a183.063,183.063,0,0,0-8.367-20.206l27.48-27.106a225.394,225.394,0,0,0-21.077-31.477l-35.515,15.033a194.114,194.114,0,0,0-15.49-15.434l14.992-35.529A227.95,227.95,0,0,0,509.43,116l-27.051,27.466a188.547,188.547,0,0,0-20.192-8.367l.263-38.585A225.457,225.457,0,0,0,425.3,89.128l-14.494,35.764a192.27,192.27,0,0,0-21.713,0L374.6,89.128a225.457,225.457,0,0,0-37.147,7.385l.263,38.585a188.632,188.632,0,0,0-20.192,8.367L290.475,116a227.94,227.94,0,0,0-31.518,21.022l14.991,35.529a194.1,194.1,0,0,0-15.489,15.434l-35.516-15.033a225.475,225.475,0,0,0-21.076,31.477l27.48,27.106a182.87,182.87,0,0,0-8.367,20.206l-38.572-.3a230.449,230.449,0,0,0-7.4,37.174L210.732,303.1a186.164,186.164,0,0,0-.028,21.879L174.94,339.477a224.1,224.1,0,0,0,7.385,37.147l38.585-.263a190.673,190.673,0,0,0,8.368,20.192L201.8,423.618a229.827,229.827,0,0,0,21.036,31.519l35.543-15.006a187.185,187.185,0,0,0,15.434,15.476L258.777,491.15a225.165,225.165,0,0,0,31.463,21.063l27.107-27.466a188.635,188.635,0,0,0,20.205,8.367l-.29,38.557a231.741,231.741,0,0,0,37.161,7.413l14.507-35.736a183,183,0,0,0,22.045,0l14.508,35.736a231.741,231.741,0,0,0,37.161-7.413l-.291-38.557a188.652,188.652,0,0,0,20.206-8.367l27.107,27.466a225.283,225.283,0,0,0,31.463-21.063L526.1,455.607a187.5,187.5,0,0,0,15.434-15.476l35.543,15.006a229.82,229.82,0,0,0,21.035-31.519l-27.48-27.065A190.667,190.667,0,0,0,579,376.361Zm-217.572,90.31c-200.873-3.348-200.935-302.14-.1-305.6C600.756,164.678,600.847,463.47,400.008,466.934Z" transform="translate(-19.644 -88.128)" stroke="#ffe623" stroke-linecap="round" stroke-linejoin="round" stroke-width="2"/>
        <g>
          <g>
            <polygon points="229.167 290.271 230.745 293.477 234.281 293.995 231.72 296.487 232.32 300.01 229.158 298.343 225.993 300.003 226.601 296.481 224.045 293.984 227.582 293.474 229.167 290.271" fill="#ffe623"/>
            <polygon points="241.7 317.239 243.279 320.445 246.815 320.963 244.253 323.455 244.853 326.978 241.692 325.312 238.527 326.971 239.135 323.45 236.578 320.952 240.115 320.442 241.7 317.239" fill="#ffe623"/>
          </g>
          <polygon points="260.693 95.641 259.115 98.848 255.579 99.365 258.141 101.857 257.54 105.38 260.702 103.714 263.867 105.374 263.259 101.852 265.816 99.354 262.278 98.844 260.693 95.641" fill="#ffe623"/>
          <polygon points="291.1 73.194 289.521 76.401 285.985 76.918 288.547 79.41 287.947 82.933 291.108 81.267 294.273 82.927 293.665 79.405 296.222 76.908 292.685 76.397 291.1 73.194" fill="#ffe623"/>
          <polygon points="238.503 121.455 236.925 124.661 233.389 125.179 235.95 127.671 235.35 131.194 238.512 129.528 241.677 131.187 241.069 127.665 243.625 125.168 240.088 124.658 238.503 121.455" fill="#ffe623"/>
          <g>
            <polygon points="531.458 290.271 529.879 293.477 526.343 293.995 528.905 296.487 528.305 300.01 531.466 298.343 534.631 300.003 534.023 296.481 536.58 293.984 533.043 293.474 531.458 290.271" fill="#ffe623"/>
            <polygon points="518.924 317.239 517.346 320.445 513.81 320.963 516.372 323.455 515.771 326.978 518.933 325.312 522.098 326.971 521.49 323.45 524.047 320.952 520.509 320.442 518.924 317.239" fill="#ffe623"/>
          </g>
          <polygon points="499.931 95.641 501.51 98.848 505.046 99.365 502.484 101.857 503.084 105.38 499.923 103.714 496.758 105.374 497.366 101.852 494.809 99.354 498.346 98.844 499.931 95.641" fill="#ffe623"/>
          <polygon points="469.525 73.194 471.103 76.401 474.64 76.918 472.078 79.41 472.678 82.933 469.517 81.267 466.351 82.927 466.959 79.405 464.403 76.908 467.94 76.397 469.525 73.194" fill="#ffe623"/>
          <polygon points="522.122 121.455 523.7 124.661 527.236 125.179 524.674 127.671 525.275 131.194 522.113 129.528 518.948 131.187 519.556 127.665 516.999 125.168 520.537 124.658 522.122 121.455" fill="#ffe623"/>
        </g>
      </g>
      <g>
        <path d="M364.7,134.744c.311,1.349.467,2.023.778,3.372-4.384.928-6.564,1.466-10.888,2.692.639,2.131.959,3.2,1.6,5.328l.073-.021c.383-1.35,1.745-2.357,4.074-2.943,2.655-.668,4.608-.521,5.811.36s2.126,2.836,2.8,5.845c.692,3.087.661,5.265-.057,6.543s-2.434,2.212-5.162,2.917c-2.694.7-4.627.786-5.853.176s-2.284-2.179-3.15-4.732c1.388-.432,2.085-.64,3.482-1.038q.757,2.1,1.508,2.464c.5.24,1.511.146,3.047-.251,1.707-.441,2.688-.919,2.941-1.482s.1-1.941-.448-4.136q-.647-2.571-1.49-3.129c-.565-.37-1.658-.366-3.265.047-2.34.6-3.46,1.487-3.37,2.575-1.329.377-1.992.574-3.315.981l-3.94-11.724A140.729,140.729,0,0,1,364.7,134.744Z" transform="translate(-19.644 -88.128)" fill="#ffe623"/>
        <path d="M394.059,137.618c-1.568.057-2.351.094-3.918.189l-.019-.523a2.562,2.562,0,0,0-.8-2.069,5.16,5.16,0,0,0-2.863-.29c-2.093.169-3.373.525-3.838,1.008s-.591,1.592-.385,3.322l.47,3.934.074-.008c.481-1.545,2.071-2.47,4.745-2.677,2.624-.2,4.449.184,5.444,1.079s1.528,2.635,1.626,5.206c.114,2.975-.292,4.993-1.182,6.067s-2.661,1.672-5.338,1.891c-3.3.271-5.435-.067-6.455-1.168s-1.892-3.985-2.578-8.669c-.848-5.784-.937-9.376-.233-10.768s3.1-2.361,7.166-2.695c2.965-.244,5.045.09,6.2.9s1.77,2.372,1.86,4.662Zm-7.12,6.45a6.453,6.453,0,0,0-3.359.867c-.457.415-.6,1.266-.451,2.549q.336,2.8,1.058,3.413c.479.413,1.575.526,3.294.381,1.646-.138,2.661-.405,3.046-.84s.529-1.476.423-3.124q-.15-2.337-.821-2.888C389.68,144.06,388.614,143.929,386.939,144.068Z" transform="translate(-19.644 -88.128)" fill="#ffe623"/>
        <path d="M421.439,138.929c-1.557-.206-2.337-.3-3.9-.469l.077-.517a2.525,2.525,0,0,0-.417-2.172,5.126,5.126,0,0,0-2.768-.764c-2.091-.182-3.414-.046-3.961.353s-.871,1.469-.982,3.207c-.1,1.581-.152,2.371-.253,3.952l.074,0c.754-1.441,2.486-2.086,5.157-1.844,2.622.237,4.352.924,5.171,1.972s1.027,2.85.656,5.4c-.43,2.948-1.2,4.868-2.271,5.776s-2.929,1.2-5.6.971c-3.3-.284-5.337-.973-6.139-2.228s-1.135-4.239-.959-8.966c.218-5.837.782-9.388,1.727-10.642s3.475-1.808,7.541-1.458c2.965.255,4.955.931,5.95,1.924s1.314,2.632.986,4.9Zm-8.192,5.162a6.508,6.508,0,0,0-3.464.293q-.788.5-.907,2.435-.178,2.81.42,3.537c.4.487,1.454.781,3.173.926,1.646.139,2.694.045,3.155-.319s.789-1.365.984-3.006q.277-2.326-.284-2.981C415.948,144.541,414.921,144.233,413.247,144.091Z" transform="translate(-19.644 -88.128)" fill="#ffe623"/>
        <path d="M430.426,150.647c1.411.288,2.115.44,3.52.762q-.531,2.13-.079,2.746c.3.412,1.276.806,2.92,1.227,1.781.455,2.922.539,3.441.2s1.1-1.528,1.737-3.585c.4-1.285.6-1.928,1-3.214l-.071-.02c-1.065,1.268-2.746,1.571-5.092.98-2.638-.664-4.31-1.475-5.022-2.531s-.8-2.844-.236-5.371c.66-2.955,1.614-4.841,2.89-5.637s3.453-.863,6.476-.095c3.923,1,6.142,2.316,6.668,3.747s-.058,4.593-1.718,9.486c-1.787,5.268-3.267,8.369-4.413,9.324s-3.362.923-6.718.069c-2.589-.66-4.266-1.448-5.039-2.466s-.927-2.631-.433-4.851Zm10.694-11.109c-1.629-.415-2.72-.453-3.259-.146s-1,1.227-1.383,2.757-.415,2.549-.09,3.03,1.333.918,3.021,1.351c1.783.457,2.944.589,3.5.352s1.054-1.069,1.5-2.5c.507-1.636.585-2.722.226-3.256S443.1,140.044,441.12,139.538Z" transform="translate(-19.644 -88.128)" fill="#ffe623"/>
      </g>
      <g>
        <path d="M317.425,459.025c-2.3,6.3-3.452,9.445-5.753,15.743-1.6-.683-2.4-1.025-4-1.7l6.017-15.645c-2.274-.971-3.41-1.454-5.683-2.395l1.313-3.172c6.035,2.5,9.045,3.854,15.092,6.458l-1.093,3.255C320.959,460.552,319.781,460.04,317.425,459.025Z" transform="translate(-19.644 -88.128)" fill="#ffe623"/>
        <path d="M336.07,466.629c-.55,2.009-.826,3.014-1.377,5.023,3.812,1.488,5.724,2.2,9.571,3.5-.254,1.1-.381,1.652-.634,2.753-3.893-1.307-5.828-2.026-9.684-3.526l-1.51,5.507c4.2,1.623,6.307,2.4,10.55,3.795-.287,1.258-.43,1.887-.716,3.145-5.932-1.945-8.871-3.072-14.725-5.416,2.265-7.754,3.4-11.631,5.664-19.385,5.35,2.193,8.036,3.252,13.457,5.081l-.718,3.145C341.976,468.915,340,468.175,336.07,466.629Z" transform="translate(-19.644 -88.128)" fill="#ffe623"/>
        <path d="M367.972,485.405c1.646.206,2.47.3,4.119.482l-.075.69c-.3,2.8-1.058,4.543-2.278,5.231s-3.783.855-7.628.214c-4.364-.726-6.906-2.036-7.663-3.555s-.611-5.067.413-10.635c.6-3.279,1.629-5.268,3.056-6s4.1-.619,8.087.011c2.905.459,4.807,1.085,5.695,2.056s1.2,2.728.919,5.277l-.034.458c-1.608-.176-2.411-.271-4.016-.473l.065-.514q.249-1.966-.451-2.615a7.7,7.7,0,0,0-3.424-1.064c-2.428-.4-3.919-.435-4.5.036s-1.109,2.119-1.581,4.95q-.952,5.721-.441,6.918c.344.8,1.777,1.474,4.315,1.9,2.057.344,3.428.316,4.094,0s1.08-1.135,1.247-2.466C367.923,485.944,367.939,485.764,367.972,485.405Z" transform="translate(-19.644 -88.128)" fill="#ffe623"/>
        <path d="M401.131,474.348c.07,8.078.105,12.116.176,20.194-1.7.015-2.547.015-4.244,0,.027-3.491.041-5.237.068-8.728-4.052-.032-6.079-.089-10.128-.286-.169,3.487-.254,5.231-.424,8.718-1.7-.082-2.543-.131-4.238-.241.526-8.061.789-12.091,1.314-20.152,1.562.1,2.343.147,3.906.223-.161,3.292-.241,4.938-.4,8.23,4,.195,6,.251,10,.282l.065-8.24C398.785,474.362,399.567,474.362,401.131,474.348Z" transform="translate(-19.644 -88.128)" fill="#ffe623"/>
        <path d="M436.492,471.24c1.275,7.977,1.913,11.965,3.188,19.941-1.694.335-2.541.488-4.231.758-.623-4.359-.935-6.538-1.558-10.9q-.186-1.3-.346-2.971c-.054-.6-.082-.9-.137-1.506s-.081-.895-.136-1.492l-.122.02c-.109.587-.164.88-.276,1.467s-.158.878-.265,1.463c-.257,1.317-.468,2.288-.627,2.919-1.258,4.78-1.928,7.152-3.361,11.905-1.539.178-2.309.261-3.849.416-2.431-4.3-3.6-6.464-5.862-10.817q-.467-.9-1.246-2.707c-.235-.546-.351-.819-.584-1.365s-.347-.811-.577-1.352l-.122.009c.072.582.109.873.182,1.455l.185,1.47q.216,1.706.307,2.93l.805,10.977c-1.694.124-2.541.179-4.236.276-.458-8.065-.687-12.1-1.144-20.163,2.546-.144,3.818-.233,6.359-.446,1.782,3.6,2.7,5.4,4.6,8.968q.487.933,1.32,2.676c.248.54.372.809.622,1.348s.384.8.642,1.331l.144-.016c.125-.573.187-.86.311-1.433s.194-.861.322-1.435q.387-1.815.69-2.878c1.066-3.9,1.57-5.852,2.52-9.764C432.594,471.984,433.892,471.762,436.492,471.24Z" transform="translate(-19.644 -88.128)" fill="#ffe623"/>
        <path d="M452.071,470.455l1.145,5.08c4-1.268,6-1.97,9.985-3.439.293,1.092.44,1.638.734,2.729-4.026,1.482-6.049,2.189-10.1,3.467.5,2.228.753,3.343,1.254,5.571,4.406-1.382,6.607-2.152,10.985-3.765.339,1.245.508,1.867.846,3.112-6.118,2.248-9.2,3.306-15.365,5.072l-4.11-19.772c5.65-1.657,8.479-2.65,14.09-4.754l.844,3.113C458.272,468.4,456.206,469.137,452.071,470.455Z" transform="translate(-19.644 -88.128)" fill="#ffe623"/>
        <path d="M490.586,451.852l7.728,18.657c-2.71,1.123-4.077,1.7-6.832,2.85-4.027-3.117-6-4.692-9.843-7.881-.478-.4-1.259-1.117-2.333-2.162-.455-.437-.682-.656-1.134-1.095s-.668-.662-1.112-1.1l-.149.062.487,1.236c.187.492.281.737.468,1.228l.882,2.5,3.725,10.969c-1.653.68-2.483,1.019-4.147,1.69-2.469-7.692-3.7-11.537-6.173-19.228,2.6-1.068,3.9-1.61,6.471-2.692,3.442,2.988,5.2,4.466,8.8,7.395q1.191.974,2.833,2.387c.554.479.832.719,1.389,1.2s.841.726,1.4,1.209l.139-.059-.525-1.191c-.209-.477-.314-.715-.524-1.192-.394-.963-.592-1.445-.986-2.409-1.707-4.327-2.561-6.49-4.269-10.817C488.372,452.772,489.113,452.462,490.586,451.852Z" transform="translate(-19.644 -88.128)" fill="#ffe623"/>
      </g>
    </g>
    <g>
      <g>
        <path d="M780.262,241.328s-12.775,27.77-56.23,28.3c-.257.011-.513.011-.77.011-1.584,3.091-15.028,26.788-54.355,27.937-1.027,2.075-12.25,23.1-45.274,27.378h.134s-13.076,27.647-53.932,29.566c0,0-13.778,29.13-57.234,29.665-.413.011-.825.011-1.249.011H511.3c-1.105,0-2.231-.022-3.381-.055H402.072V236.33H776Z" transform="translate(-19.644 -88.128)" fill="#ffe623"/>
        <g>
          <path d="M615.243,321.59a27.1,27.1,0,0,1-2.019,3.4c-.157.234-.324.468-.5.725-5.567,7.854-21.2,24.188-54.969,24.188-1.115,0-2.253-.023-3.414-.056H399.628V321.59Z" transform="translate(-19.644 -88.128)" stroke="#ffe623" stroke-linecap="round" stroke-linejoin="round"/>
          <path d="M562.07,349.906a31.233,31.233,0,0,1-2.912,4.674.726.726,0,0,0-.067.09c-6.136,8.334-22.7,24.611-57.937,23.5H399.628v-28.26Z" transform="translate(-19.644 -88.128)" stroke="#ffe623" stroke-linecap="round" stroke-linejoin="round"/>
          <path d="M775.163,236.631s-13.689,29.755-60.915,28.272H399.628V236.631Z" transform="translate(-19.644 -88.128)" stroke="#ffe623" stroke-linecap="round" stroke-linejoin="round"/>
          <path d="M663.217,293.274a29.276,29.276,0,0,1-2.533,4.139c-.033.045-.067.1-.111.157-5.668,7.921-21.321,24.02-54.869,24.02-1.116,0-2.243-.022-3.392-.056H399.628v-28.26H657.17c.926.011,1.841.011,2.733,0Z" transform="translate(-19.644 -88.128)" stroke="#ffe623" stroke-linecap="round" stroke-linejoin="round"/>
          <path d="M716.367,264.97a29.271,29.271,0,0,1-2.666,4.34c-.067.089-.134.178-.2.278-5.8,7.933-21.209,23.363-53.6,23.686-.892.011-1.807.011-2.733,0-.558-.011-1.138-.022-1.718-.044H399.628V264.97Z" transform="translate(-19.644 -88.128)" stroke="#ffe623" stroke-linecap="round" stroke-linejoin="round"/>
        </g>
      </g>
      <g>
        <path d="M709.049,250.109s-3.124,7.609-11.793,14.794a.549.549,0,0,1-.078.067c-8.412,6.939-22.024,13.466-43.043,12.294,0,0-3.637,8.323-13.276,15.966a.248.248,0,0,1-.056.044c-8.356,6.605-21.209,12.7-40.075,12.44,0,0-2.867,8.178-12.06,15.82-.023.022-.045.034-.067.056-7.877,6.527-20.361,12.663-39.607,12.986,0,0-2.733,7.788-11.6,15.274a.3.3,0,0,0-.067.056c-7.921,6.638-20.706,13.008-40.766,13.41,0,0-3.526,7.531-12.663,14.85a58.156,58.156,0,0,1-9.115,5.98c-9.182,4.864-21.733,8.434-38.468,7.62H399.628V244.821h2.444l302.135-.291Z" transform="translate(-19.644 -88.128)" fill="#ffe623"/>
        <g>
          <path d="M703.76,244.821s-5.4,11.725-21.1,20.082l-.134.067c-8.691,4.6-20.506,8.166-36.293,8.166-1.115,0-2.242-.022-3.391-.055H399.628v-28.26Z" transform="translate(-19.644 -88.128)" stroke="#ffe623" stroke-linecap="round" stroke-linejoin="round"/>
          <path d="M649.092,273.136s-5.4,11.737-21.119,20.094a.34.34,0,0,1-.09.044c-8.691,4.608-20.506,8.178-36.292,8.178-1.116,0-2.254-.022-3.414-.056H399.628v-28.26Z" transform="translate(-19.644 -88.128)" stroke="#ffe623" stroke-linecap="round" stroke-linejoin="round"/>
          <path d="M596.277,301.452s-5.389,11.726-21.087,20.082a.526.526,0,0,1-.111.056c-8.68,4.608-20.506,8.178-36.293,8.178-1.116,0-2.254-.023-3.414-.056H399.628v-28.26Z" transform="translate(-19.644 -88.128)" stroke="#ffe623" stroke-linecap="round" stroke-linejoin="round"/>
          <path d="M545.168,329.768s-5.4,11.725-21.1,20.082c-.033.022-.067.033-.1.056-8.5,4.507-20,8.032-35.289,8.177-.892.012-1.8.012-2.722,0-.558-.011-1.138-.033-1.707-.044H399.628V329.768Z" transform="translate(-19.644 -88.128)" stroke="#ffe623" stroke-linecap="round" stroke-linejoin="round"/>
          <path d="M490.5,358.083s-5.389,11.715-21.075,20.083a67.3,67.3,0,0,1-16.021,5.98,90.541,90.541,0,0,1-23.82,2.209H399.628V358.083h86.331c.926.012,1.83.012,2.722,0Z" transform="translate(-19.644 -88.128)" stroke="#ffe623" stroke-linecap="round" stroke-linejoin="round"/>
        </g>
      </g>
      <g>
        <path d="M642.711,256s-12.886,26.374-57.323,28.048c0,0-8.926,27.155-53.921,28.449,0,0-9.862,27.334-51.321,28.45,0,0-8.189,19.714-34.217,26.966h-45.81V250.343l236.74-.285Z" transform="translate(-19.644 -88.128)" fill="#ffe623"/>
        <g>
          <path d="M636.405,250.345s-13.008,28.282-57.457,28.316h-.067c-1.115,0-2.242-.023-3.391-.056H400.117v-28.26Z" transform="translate(-19.644 -88.128)" stroke="#ffe623" stroke-linecap="round" stroke-linejoin="round"/>
          <path d="M578.948,279.032s-13.02,28.316-57.5,28.316c-1.116,0-2.254-.022-3.414-.056H400.117v-28.26Z" transform="translate(-19.644 -88.128)" stroke="#ffe623" stroke-linecap="round" stroke-linejoin="round"/>
          <path d="M525.954,307.348s-13.678,29.755-60.916,28.26H400.117v-28.26Z" transform="translate(-19.644 -88.128)" stroke="#ffe623" stroke-linecap="round" stroke-linejoin="round"/>
          <path d="M473.14,335.658s-13.667,29.755-60.9,28.26H400.119v-28.26Z" transform="translate(-19.644 -88.128)" stroke="#ffe623" stroke-linecap="round" stroke-linejoin="round"/>
        </g>
      </g>
      <g>
        <path d="M19.644,241.328s12.774,27.77,56.229,28.3c.257.011.514.011.77.011,1.585,3.091,15.028,26.788,54.356,27.937,1.026,2.075,12.25,23.1,45.274,27.378h-.134s13.075,27.647,53.931,29.566c0,0,13.779,29.13,57.234,29.665.413.011.826.011,1.25.011h.056c1.1,0,2.231-.022,3.38-.055H397.834V236.33H23.906Z" transform="translate(-19.644 -88.128)" fill="#ffe623"/>
        <g>
          <path d="M184.663,321.59a26.937,26.937,0,0,0,2.019,3.4c.156.234.323.468.5.725,5.567,7.854,21.2,24.188,54.969,24.188,1.116,0,2.254-.023,3.414-.056h154.71V321.59Z" transform="translate(-19.644 -88.128)" stroke="#ffe623" stroke-linecap="round" stroke-linejoin="round"/>
          <path d="M237.835,349.906a31.341,31.341,0,0,0,2.912,4.674.569.569,0,0,1,.067.09c6.136,8.334,22.7,24.611,57.937,23.5H400.277v-28.26Z" transform="translate(-19.644 -88.128)" stroke="#ffe623" stroke-linecap="round" stroke-linejoin="round"/>
          <path d="M24.742,236.631s13.69,29.755,60.916,28.272H400.277V236.631Z" transform="translate(-19.644 -88.128)" stroke="#ffe623" stroke-linecap="round" stroke-linejoin="round"/>
          <path d="M136.689,293.274a29.193,29.193,0,0,0,2.532,4.139c.034.045.067.1.112.157,5.667,7.921,21.32,24.02,54.868,24.02,1.116,0,2.243-.022,3.392-.056H400.277v-28.26H142.736c-.926.011-1.841.011-2.734,0Z" transform="translate(-19.644 -88.128)" stroke="#ffe623" stroke-linecap="round" stroke-linejoin="round"/>
          <path d="M83.538,264.97a29.236,29.236,0,0,0,2.667,4.34c.066.089.133.178.2.278,5.8,7.933,21.209,23.363,53.6,23.686.893.011,1.808.011,2.734,0,.557-.011,1.138-.022,1.718-.044H400.277V264.97Z" transform="translate(-19.644 -88.128)" stroke="#ffe623" stroke-linecap="round" stroke-linejoin="round"/>
        </g>
      </g>
      <g>
        <path d="M90.857,250.109s3.124,7.609,11.793,14.794a.5.5,0,0,0,.078.067c8.412,6.939,22.023,13.466,43.042,12.294,0,0,3.637,8.323,13.277,15.966a.227.227,0,0,0,.056.044c8.356,6.605,21.208,12.7,40.074,12.44,0,0,2.868,8.178,12.061,15.82.022.022.044.034.067.056,7.876,6.527,20.361,12.663,39.606,12.986,0,0,2.733,7.788,11.6,15.274a.277.277,0,0,1,.067.056c7.921,6.638,20.707,13.008,40.767,13.41,0,0,3.525,7.531,12.662,14.85a58.168,58.168,0,0,0,9.116,5.98c9.181,4.864,21.733,8.434,38.468,7.62h36.683V244.821h-2.443L95.7,244.53Z" transform="translate(-19.644 -88.128)" fill="#ffe623"/>
        <g>
          <path d="M96.145,244.821s5.4,11.725,21.1,20.082l.133.067c8.691,4.6,20.506,8.166,36.293,8.166,1.116,0,2.243-.022,3.392-.055H400.277v-28.26Z" transform="translate(-19.644 -88.128)" stroke="#ffe623" stroke-linecap="round" stroke-linejoin="round"/>
          <path d="M150.813,273.136s5.4,11.737,21.12,20.094a.335.335,0,0,0,.089.044c8.691,4.608,20.506,8.178,36.293,8.178,1.115,0,2.253-.022,3.414-.056H400.277v-28.26Z" transform="translate(-19.644 -88.128)" stroke="#ffe623" stroke-linecap="round" stroke-linejoin="round"/>
          <path d="M203.629,301.452s5.389,11.726,21.086,20.082a.533.533,0,0,0,.112.056c8.68,4.608,20.506,8.178,36.292,8.178,1.116,0,2.254-.023,3.414-.056H400.277v-28.26Z" transform="translate(-19.644 -88.128)" stroke="#ffe623" stroke-linecap="round" stroke-linejoin="round"/>
          <path d="M254.738,329.768s5.4,11.725,21.1,20.082c.034.022.067.033.1.056,8.5,4.507,20,8.032,35.288,8.177.893.012,1.8.012,2.722,0,.558-.011,1.138-.033,1.707-.044h84.624V329.768Z" transform="translate(-19.644 -88.128)" stroke="#ffe623" stroke-linecap="round" stroke-linejoin="round"/>
          <path d="M309.406,358.083s5.388,11.715,21.075,20.083a67.262,67.262,0,0,0,16.021,5.98,90.534,90.534,0,0,0,23.819,2.209h29.956V358.083H313.946c-.926.012-1.829.012-2.722,0Z" transform="translate(-19.644 -88.128)" stroke="#ffe623" stroke-linecap="round" stroke-linejoin="round"/>
        </g>
      </g>
      <g>
        <path d="M157.2,256s12.886,26.374,57.323,28.048c0,0,8.925,27.155,53.92,28.449,0,0,9.863,27.334,51.321,28.45,0,0,8.189,19.714,34.218,26.966h45.809V250.343l-236.74-.285Z" transform="translate(-19.644 -88.128)" fill="#ffe623"/>
        <g>
          <path d="M163.5,250.345s13.009,28.282,57.457,28.316h.067c1.116,0,2.243-.023,3.392-.056H399.788v-28.26Z" transform="translate(-19.644 -88.128)" stroke="#ffe623" stroke-linecap="round" stroke-linejoin="round"/>
          <path d="M220.957,279.032s13.02,28.316,57.5,28.316c1.116,0,2.254-.022,3.414-.056H399.788v-28.26Z" transform="translate(-19.644 -88.128)" stroke="#ffe623" stroke-linecap="round" stroke-linejoin="round"/>
          <path d="M273.952,307.348s13.678,29.755,60.915,28.26h64.921v-28.26Z" transform="translate(-19.644 -88.128)" stroke="#ffe623" stroke-linecap="round" stroke-linejoin="round"/>
          <path d="M326.766,335.658s13.666,29.755,60.9,28.26h12.116v-28.26Z" transform="translate(-19.644 -88.128)" stroke="#ffe623" stroke-linecap="round" stroke-linejoin="round"/>
        </g>
      </g>
    </g>
    <g>
      <polygon points="381.148 173.998 462.209 148.988 470.856 197.574 408.023 317.082 380.319 323.783 352.534 317.082 332.316 238.895 291.527 188.219 300.416 148.988 381.148 173.998" fill="#ffe623"/>
      <polygon points="461.884 147.728 475.356 155.298 475.356 159.275 479.975 159.275 479.975 162.483 482.797 162.483 482.797 193.147 480.873 193.147 480.873 195.969 475.227 195.969 475.227 201.101 464.194 208.671 455.854 165.434 461.884 147.728" fill="#ffe623"/>
      <polygon points="298.734 147.728 285.262 155.298 285.262 159.275 280.644 159.275 280.644 162.483 277.821 162.483 277.821 193.147 279.746 193.147 279.746 195.969 285.391 195.969 285.391 201.101 296.425 208.671 304.764 165.434 298.734 147.728" fill="#ffe623"/>
      <path d="M499.093,317.716S442.525,342.628,423.335,452.4l2.6-130.057,49.58-34.259L470.809,272.6s-30.775,19.524-70.846,21.884c-40.071-2.36-70.846-21.884-70.846-21.884l-4.709,15.483,49.57,34.259L376.591,452.4c-19.2-109.773-75.758-134.685-75.758-134.685,17.671-38.218,15.149-69.864,15.149-69.864C312.448,234.89,317,222.09,317,222.09c6.349-13.509,16.577-17.418,16.577-17.418a29.54,29.54,0,0,1,14.066-2.106c21.874-12.294,28.791-7.575,28.791-8.76s7.23-15.484,7.23-15.484c4.942-1.64,15.838-2.471,16.3-2.511.466.04,11.362.871,16.3,2.511,0,0,7.23,14.309,7.23,15.484s6.907-3.534,28.791,8.76a29.491,29.491,0,0,1,14.055,2.106s10.238,3.909,16.588,17.418c0,0,4.547,12.8,1.013,25.762C483.944,247.852,481.412,279.5,499.093,317.716Z" transform="translate(-19.644 -88.128)" stroke="#ffe623" stroke-linecap="round" stroke-linejoin="round" stroke-width="0.75"/>
      <g>
        <g>
          <path d="M373.066,264.146c-1.347-.779-52.248-30.2-33.726-61.209a36.631,36.631,0,0,1,8.3-.371S323.232,221.878,373.066,264.146Z" transform="translate(-19.644 -88.128)" fill="none" stroke="#ffe623" stroke-linecap="round" stroke-linejoin="round" stroke-width="0.75"/>
          <polyline points="353.21 175.923 364.676 160.343 356.785 105.678" fill="none" stroke="#ffe623" stroke-linecap="round" stroke-linejoin="round" stroke-width="0.75"/>
          <path d="M383.659,178.322s3.53,49.9.661,70.148" transform="translate(-19.644 -88.128)" fill="none" stroke="#ffe623" stroke-linecap="round" stroke-linejoin="round" stroke-width="0.75"/>
        </g>
        <path d="M367.455,325.037l6.523-2.693,2.61,129.813-9.133-127.12-49.992-35.922,5.886-20.507c1.012.633,5.768,3.994,5.768,3.994" transform="translate(-19.644 -88.128)" fill="none" stroke="#ffe623" stroke-linecap="round" stroke-linejoin="round" stroke-width="0.75"/>
        <line x1="297.819" y1="200.987" x2="304.764" y2="199.958" fill="none" stroke="#ffe623" stroke-linecap="round" stroke-linejoin="round" stroke-width="0.75"/>
      </g>
      <g>
        <g>
          <path d="M426.84,264.153c1.347-.78,52.248-30.2,33.726-61.21a36.637,36.637,0,0,0-8.3-.371S476.673,221.884,426.84,264.153Z" transform="translate(-19.644 -88.128)" fill="none" stroke="#ffe623" stroke-linecap="round" stroke-linejoin="round" stroke-width="0.75"/>
          <polyline points="407.408 175.929 395.942 160.349 403.833 105.685" fill="none" stroke="#ffe623" stroke-linecap="round" stroke-linejoin="round" stroke-width="0.75"/>
          <path d="M416.246,178.329s-3.53,49.894-.66,70.148" transform="translate(-19.644 -88.128)" fill="none" stroke="#ffe623" stroke-linecap="round" stroke-linejoin="round" stroke-width="0.75"/>
        </g>
        <path d="M432.45,325.043l-6.522-2.693-2.61,129.814,9.132-127.121,49.993-35.922-5.886-20.507c-1.013.633-5.748,3.988-5.748,3.988" transform="translate(-19.644 -88.128)" fill="none" stroke="#ffe623" stroke-linecap="round" stroke-linejoin="round" stroke-width="0.75"/>
        <line x1="462.799" y1="200.993" x2="455.854" y2="199.964" fill="none" stroke="#ffe623" stroke-linecap="round" stroke-linejoin="round" stroke-width="0.75"/>
      </g>
      <path d="M413.622,272.27l2.471-1.308a16.089,16.089,0,0,0-.476-3.6L412.971,267a13.626,13.626,0,0,0-2.148-4.057l1.039-2.556a16.263,16.263,0,0,0-2.514-2.232l-2.268,1.425a13.61,13.61,0,0,0-4.669-1.778l-.832-2.579a16.361,16.361,0,0,0-3.252,0l-.833,2.579a13.618,13.618,0,0,0-4.669,1.778l-2.267-1.425a16.27,16.27,0,0,0-2.515,2.232l1.039,2.556A13.626,13.626,0,0,0,386.934,267l-2.645.365a16.089,16.089,0,0,0-.477,3.6l2.472,1.308a13.543,13.543,0,0,0,.856,3.882l-1.8,2a16.11,16.11,0,0,0,2.087,3.321l2.743-.59a13.664,13.664,0,0,0,2.691,2.134l-.1,2.731a16.012,16.012,0,0,0,3.879,1.347l1.706-2.194a13.716,13.716,0,0,0,3.223,0l1.707,2.194a16.042,16.042,0,0,0,3.879-1.347l-.1-2.731a13.664,13.664,0,0,0,2.691-2.134l2.744.59a16.152,16.152,0,0,0,2.087-3.321l-1.8-2A13.61,13.61,0,0,0,413.622,272.27Zm-13.669,10.962a12.116,12.116,0,1,1,12.116-12.116A12.116,12.116,0,0,1,399.953,283.232Z" transform="translate(-19.644 -88.128)" fill="none" stroke="#ffe623" stroke-linecap="round" stroke-linejoin="round" stroke-width="0.5"/>
    </g>
  </g>
</svg>
