<svg id="ehAi8S6CLKa1" xmlns="http://www.w3.org/2000/svg" viewBox="0 0 48.64 46.63"><path d="M7.36,30.83a18,18,0,0,0,2.84,4.92L8.26,43.12l7.81,4.51,5.41-5.37a18,18,0,0,0,5.68,0l5.42,5.37,7.8-4.51-1.94-7.37a18.32,18.32,0,0,0,2.85-4.92l7.35-2v-9l-7.35-2a18.32,18.32,0,0,0-2.85-4.92l1.94-7.37L32.58,1,27.16,6.37a18,18,0,0,0-5.68,0L16.07,1,8.26,5.51l1.94,7.37A18,18,0,0,0,7.36,17.8L0,19.81v9l7.36,2L16,29.1A9.56,9.56,0,1,1,29.1,32.6,9.56,9.56,0,0,1,16,29.1Z" transform="translate(0 -1)" style="fill:#ffe629"/></svg>